Coordinates
version=1
nRows=12
nColumns=24
inDegrees=yes

Units are S.I. units (second, meters, Newtons, ...)
Angles are in degrees.

endheader
time	pelvis_tilt	pelvis_list	pelvis_rotation	pelvis_tx	pelvis_ty	pelvis_tz	hip_flexion_r	hip_adduction_r	hip_rotation_r	knee_angle_r	ankle_angle_r	subtalar_angle_r	mtp_angle_r	hip_flexion_l	hip_adduction_l	hip_rotation_l	knee_angle_l	ankle_angle_l	subtalar_angle_l	mtp_angle_l	lumbar_extension	lumbar_bending	lumbar_rotation
      5.19500000	    -18.28478443	     -0.90804408	     -3.39112768	     -1.22494666	      0.00513438	     -0.24200977	      7.69063452	      7.29334140	      6.75610005	     -5.63472137	      0.70393129	      2.14202182	      6.14140980	     42.87045052	      0.37643834	     -0.01805260	    -47.61136100	     15.30506157	     10.51648178	    -65.24615226	     11.92985588	      1.76227008	      7.19315682
      5.20000000	    -18.21448587	     -0.78789178	     -3.67708643	     -1.21742659	      0.00517875	     -0.24172925	      6.83810090	      7.13072225	      6.71543066	     -5.14524481	      0.47847192	      2.54116689	      6.25200512	     42.98841404	      0.33390327	     -0.11151326	    -45.71301745	     15.63150770	     10.67541129	    -65.25827816	     11.82685822	      1.76447493	      7.38888956
      5.20500000	    -18.15288986	     -0.66447413	     -3.94318883	     -1.20991753	      0.00510142	     -0.24146894	      6.02539109	      6.96066765	      6.66332214	     -4.70861898	      0.28226487	      2.93271314	      6.39680050	     43.08009114	      0.30747827	     -0.17042707	    -43.74133120	     15.89581200	     10.81226122	    -65.26194464	     11.72938451	      1.75831909	      7.56108542
      5.21000000	    -18.11222958	     -0.53441754	     -4.19187030	     -1.20242591	      0.00488817	     -0.24120746	      5.26923346	      6.78461927	      6.60458823	     -4.33231316	      0.12055879	      3.30263239	      6.56780566	     43.15786142	      0.29700817	     -0.18515304	    -41.69713185	     16.10056490	     10.94643765	    -65.25548979	     11.65101333	      1.73793082	      7.70480275
      5.21500000	    -18.08541522	     -0.40051940	     -4.41987522	     -1.19495017	      0.00454930	     -0.24096104	      4.56086203	      6.60348161	      6.54342382	     -4.01487357	     -0.01069638	      3.65245751	      6.76850711	     43.21400219	      0.30208839	     -0.15637946	    -39.58266543	     16.24808912	     11.07811792	    -65.24134474	     11.58311949	      1.70627247	      7.83005047
      5.22000000	    -18.00989385	     -0.27636814	     -4.62010997	     -1.18750130	      0.00413592	     -0.24076787	      3.83852595	      6.42655440	      6.40391377	     -3.76072967	     -0.12308302	      4.01235217	      7.18197807	     43.17892840	      0.32461397	     -0.04658303	    -37.40379373	     16.38736770	     11.25000169	    -65.20299410	     11.45132262	      1.67639711	      7.95318124
      5.22500000	    -18.00910443	     -0.10641999	     -4.82393705	     -1.18004107	      0.00355634	     -0.24052431	      3.22871845	      6.21181829	      6.34160209	     -3.56315227	     -0.20537510	      4.28138754	      7.59383540	     43.18115962	      0.37167829	      0.06586141	    -35.14687191	     16.43861462	     11.42208281	    -65.16243300	     11.40446648	      1.59985049	      8.04114727
      5.23000000	    -18.06580645	      0.06834583	     -5.02118160	     -1.17257889	      0.00281032	     -0.24030554	      2.70738053	      5.99651601	      6.33731499	     -3.42054424	     -0.25791634	      4.48500463	      7.89530062	     43.21328781	      0.42295986	      0.22094211	    -32.84003032	     16.44937117	     11.58789954	    -65.13527856	     11.42030496	      1.52479452	      8.12433094
      5.23500000	    -18.18421146	      0.25986935	     -5.18405891	     -1.16513681	      0.00187069	     -0.24005174	      2.29919238	      5.78189553	      6.34461653	     -3.37578583	     -0.22998534	      4.57851067	      8.08170246	     43.29601923	      0.47749431	      0.37915992	    -30.50834754	     16.45125263	     11.90642293	    -65.12898588	     11.49681412	      1.42014611	      8.12573872
      5.24000000	    -18.09353834	      0.45868869	     -5.32029473	     -1.15771947	      0.00109276	     -0.23987371	      1.67760055	      5.52939085	      6.23828389	     -3.32383654	     -0.25193812	      4.75574709	      8.72098917	     43.10524956	      0.58301202	      0.64926797	    -28.10760664	     16.43053159	     12.22814983	    -65.08217923	     11.33011100	      1.28788226	      8.16057459
      5.24500000	    -18.29432221	      0.64517523	     -5.50292028	     -1.15034539	     -0.00013536	     -0.23963040	      1.42909978	      5.33615328	      6.34572848	     -3.40878348	     -0.18580457	      4.74006496	      8.90805775	     43.24337228	      0.60025214	      0.87381897	    -25.75571071	     16.41750059	     12.61909926	    -65.09034013	     11.47857268	      1.20982955	      8.20301799
      5.25000000	    -18.39767745	      0.84838298	     -5.67019253	     -1.14294741	     -0.00134982	     -0.23937222	      1.08825133	      5.11836332	      6.45180008	     -3.51804715	     -0.10178374	      4.68802993	      9.15364154	     43.24650285	      0.63973891	      1.12871497	    -23.37833537	     16.40303839	     13.04251441	    -65.10683526	     11.51564931	      1.09036079	      8.23781268
